PathFileType	4	(X/Y/Z)	C:\Users\Biomechanik\SynologyDrive\AlexP\Athlete_03\Athlete_3_25_03_31\Walking_07\marker_experimental.trc
DataRate	CameraRate	NumFrames	NumMarkers	Units	OrigDataRate	OrigDataStartFrame	OrigNumFrames
200.000000	200.000000	4	53	mm	200.000000	337	450
Frame#	Time	GLAB			RFHD			LFHD			C7			T6			SPINMOL			SPINM2			SPINM3			T12			BELTOL			BELT2			BELT3			SACROL			SACR2			SACR3			LTHOL			LTH2			LTH3			LSHAOL			LSHA2			LSHA3			LHEE			LTOE			LM5			RTHOL			RTH2			RTH3			RSHAOL			RSHA2			RSHA3			RHEE			RTOE			RM5			STRN			XIPH			LACR			LUAOL			LUA2			LUA3			LLAOL			LLA2			LLA3			LWRR			LWRU			RACR			RUAOL			RUA2			RUA3			RLAOL			RLA2			RLA3			RWRR			RWRU			
		X1	Y1	Z1	X2	Y2	Z2	X3	Y3	Z3	X4	Y4	Z4	X5	Y5	Z5	X6	Y6	Z6	X7	Y7	Z7	X8	Y8	Z8	X9	Y9	Z9	X10	Y10	Z10	X11	Y11	Z11	X12	Y12	Z12	X13	Y13	Z13	X14	Y14	Z14	X15	Y15	Z15	X16	Y16	Z16	X17	Y17	Z17	X18	Y18	Z18	X19	Y19	Z19	X20	Y20	Z20	X21	Y21	Z21	X22	Y22	Z22	X23	Y23	Z23	X24	Y24	Z24	X25	Y25	Z25	X26	Y26	Z26	X27	Y27	Z27	X28	Y28	Z28	X29	Y29	Z29	X30	Y30	Z30	X31	Y31	Z31	X32	Y32	Z32	X33	Y33	Z33	X34	Y34	Z34	X35	Y35	Z35	X36	Y36	Z36	X37	Y37	Z37	X38	Y38	Z38	X39	Y39	Z39	X40	Y40	Z40	X41	Y41	Z41	X42	Y42	Z42	X43	Y43	Z43	X44	Y44	Z44	X45	Y45	Z45	X46	Y46	Z46	X47	Y47	Z47	X48	Y48	Z48	X49	Y49	Z49	X50	Y50	Z50	X51	Y51	Z51	X52	Y52	Z52	X53	Y53	Z53	

338	1.685	1906.067993164062	1555.167114257813	181.846343994141	1856.501220703125	1588.259765625	244.1010894775394	1866.151611328125	1577.15625	106.178146362305	1671.576904296875	1405.6318359375	176.2532806396488	1611.865112304688	1236.696044921875	179.6814270019534	1605.552856445312	1195.83984375	159.4336395263675	1597.617309570312	1189.40625	208.8482971191409	1608.734008789062	1132.166625976562	177.15983581543	1634.984741210938	1064.594482421875	180.6000366210941	1603.212646484375	1028.016723632812	159.1916351318362	1598.985595703125	1027.146606445312	209.3168792724612	1597.838256835938	966.2152709960939	181.7844696044925	1618.9462890625	924.5228271484376	153.2626953125003	1610.9619140625	925.5016479492189	204.1228790283206	1597.28466796875	866.4624633789064	177.7313232421878	1820.87353515625	642.4515991210939	13.29572963714633	1796.784423828125	571.2059936523439	37.97388458251986	1843.504760742188	587.5932617187501	27.00852012634311	1938.809814453125	307.8419799804689	24.54167556762731	1917.054077148438	232.6761779785157	39.0143661499027	1962.803100585938	250.8645019531251	31.92922401428259	1971.170654296875	51.5028877258302	118.5405197143558	2185.15478515625	93.82842254638685	114.219619750977	2147.737548828125	56.06027984619154	21.35734367370645	1606.75439453125	692.1293945312501	372.8700866699222	1639.587280273438	622.6956176757814	391.912292480469	1599.038208007812	631.4000854492189	364.5049743652347	1458.327880859375	383.5080566406251	362.8875732421878	1450.661865234375	305.3226928710939	358.8306274414065	1417.273681640625	339.5974731445314	345.5874633789065	1283.9482421875	176.609100341797	237.0601806640627	1428.99609375	41.45079803466805	234.4979705810549	1391.600341796875	46.41251373291024	342.1499633789065	1841.779663085938	1302.614501953125	183.0197906494144	1855.627075195312	1159.878051757812	193.6410675048832	1745.675537109375	1357.771850585938	4.550675868988358	1698.851196289062	1203.932983398438	-88.70785522460906	1669.49755859375	1145.7421875	-101.3033065795895	1719.549560546875	1141.053833007812	-90.31111907958953	1646.512329101562	948.8005981445314	-130.0973358154294	1596.05029296875	893.5187988281251	-102.7333908081052	1635.84423828125	888.0400390625001	-132.6647033691403	1625.212768554688	785.0101928710939	-142.8472595214841	1685.05615234375	767.9591064453126	-92.70056152343719	1751.523559570312	1370.055908203125	347.0076904296878	1752.362426757812	1229.642944335938	454.3766479492191	1785.340698242188	1173.276123046875	463.8921508789066	1736.612670898438	1171.6708984375	480.9874877929691	1847.497436523438	969.7776489257814	505.7361450195316	1925.8955078125	958.2950439453126	510.9965209960941	1891.295654296875	926.4898681640626	495.7610168457035	1969.589965820312	881.5916137695314	485.0450134277347	1995.270385742188	902.8715209960939	411.0042114257816	
339	1.69	1913.094848632812	1555.233764648438	180.5012207031253	1863.437622070312	1588.304809570313	242.695709228516	1873.287841796875	1577.256591796875	104.7868499755863	1678.72607421875	1405.410034179688	174.5152130126956	1619.520263671875	1236.2607421875	178.0746765136722	1613.33740234375	1195.374877929688	157.8709869384768	1605.323608398438	1188.971313476562	207.2799987792972	1616.694091796875	1131.722534179688	175.6714324951175	1643.104125976562	1064.287963867188	179.3381500244144	1611.699951171875	1027.7158203125	158.1047821044925	1607.500854492188	1026.81787109375	208.2451629638675	1606.500610351562	965.8995361328126	180.6565093994143	1627.085693359375	924.2670898437501	152.0954437255863	1619.166748046875	925.0136108398439	202.955749511719	1606.015380859375	865.9359741210939	176.3630981445315	1828.435302734375	642.9165649414064	12.45473766326938	1804.14111328125	571.6965332031251	36.98568344116244	1850.891967773438	587.9702758789064	26.03945732116733	1944.979125976562	307.9947204589845	23.50337791442907	1922.280517578125	233.1185455322267	37.68982696533239	1968.22216796875	250.7281341552736	31.03583335876501	1972.522827148438	52.11499786376965	118.1077575683597	2187.446044921875	89.21826934814466	114.4701614379887	2149.27685546875	52.11333465576185	21.64896583557168	1615.380737304688	691.4411010742189	371.7084960937503	1648.351318359375	622.2119140625001	391.5015869140628	1608.031372070312	630.6875610351564	363.6337585449222	1466.478637695312	384.8082580566407	363.0613708496097	1457.602905273438	306.7220458984376	359.183288574219	1424.894653320312	341.5021972656251	345.5177917480472	1290.203979492188	181.3876190185548	237.0252075195315	1429.639038085938	41.47572708129891	234.3328247070315	1392.6728515625	47.24251937866219	342.0062255859378	1849.186645507812	1302.85595703125	181.5848388671878	1863.531372070312	1160.2265625	192.3494262695316	1753.085571289062	1357.483276367188	2.940386295318925	1706.718383789062	1203.369140625	-90.13322448730437	1677.480712890625	1145.112426757812	-102.6149902343747	1727.574340820312	1140.550415039062	-91.65959930419891	1655.114379882812	948.0062255859376	-131.2309112548825	1604.705688476562	892.6712646484376	-103.8724212646481	1644.584350585938	887.2265625000001	-133.7102203369137	1634.207641601562	784.1432495117189	-143.7099151611325	1693.979858398438	767.3261718750001	-93.38883209228484	1758.496459960938	1370.04736328125	345.497222900391	1759.041137695312	1229.481079101562	452.7344055175785	1791.848754882812	1172.972045898438	462.2851867675785	1743.116088867188	1171.531616210938	479.3320617675785	1852.940673828125	968.9743041992189	504.2406616210941	1931.251342773438	956.9739990234376	509.8495788574222	1896.480224609375	925.3778076171876	494.5229492187503	1974.54833984375	879.9917602539064	484.2412719726566	2000.368896484375	900.6708984375001	410.1016845703128	
340	1.695	1920.106689453125	1555.3662109375	179.16764831543	1870.356079101562	1588.41357421875	241.2999114990238	1880.416748046875	1577.429809570313	103.4062347412113	1685.873168945312	1405.256591796875	172.7730712890628	1627.176879882812	1235.886840820312	176.4788055419925	1621.123657226562	1194.97509765625	156.3264160156253	1613.024047851562	1188.611206054688	205.7300415039065	1624.64794921875	1131.346923828125	174.2126159667972	1651.188598632812	1064.064331054688	178.1275329589847	1620.151489257812	1027.551147460938	157.080749511719	1615.991943359375	1026.615844726562	207.2341613769534	1615.114501953125	965.7141113281251	179.5805511474612	1635.158203125	924.0843505859376	150.9893188476566	1627.337524414062	924.5707397460939	201.8535308837894	1614.718627929688	865.4658813476564	175.0322265625003	1835.86669921875	643.4781494140626	11.56264495849643	1811.4150390625	572.2976684570314	35.98566436767612	1858.176147460938	588.4609375000001	25.00909805297886	1951.182006835938	308.315643310547	22.34935569763219	1927.50439453125	233.7421417236329	36.13956832885778	1973.644653320312	250.7653198242189	30.03886222839392	1973.812622070312	52.84437561035168	117.6062927246097	2189.584228515625	84.82955169677747	114.7341842651371	2150.737548828125	48.38652801513685	21.91534996032754	1624.167724609375	690.6290893554689	370.5431823730472	1657.3154296875	621.6527709960939	391.1282958984378	1617.223754882812	629.8567504882814	362.7996826171878	1474.992065429688	386.0815429687501	363.259948730469	1464.889404296875	308.1156311035157	359.565368652344	1432.89306640625	343.3957519531251	345.4483642578128	1296.959228515625	186.3047790527345	236.9226379394534	1430.491333007812	41.60803604125985	234.1481475830081	1393.827758789062	48.28015136718759	341.8100280761722	1856.57958984375	1303.185546875	180.1512451171878	1871.424194335938	1160.658081054688	191.0522918701175	1760.498168945312	1357.26416015625	1.329529166221942	1714.647216796875	1202.866088867188	-91.56391143798797	1685.535400390625	1144.54150390625	-103.9364242553708	1735.674072265625	1140.11474609375	-93.00771331787078	1663.858032226562	947.2583007812501	-132.3854827880856	1613.502563476562	891.8598022460939	-105.0569000244138	1653.4814453125	886.4602050781251	-134.7810058593747	1643.393676757812	783.3164062500001	-144.5959777832028	1703.073364257812	766.7575683593751	-94.07640838623016	1765.442504882812	1370.111450195312	343.9983825683597	1765.6689453125	1229.37890625	451.0920715332035	1798.315673828125	1172.734375	460.6858825683597	1749.57177734375	1171.445556640625	477.665435791016	1858.3056640625	968.2167358398439	502.7553710937503	1936.517822265625	955.6687622070314	508.729156494141	1901.564453125	924.2918701171876	493.3136596679691	1979.382202148438	878.3852539062501	483.493560791016	2005.345458984375	898.4193115234376	409.2509765625003	
341	1.7	1927.101928710938	1555.55908203125	177.8466186523441	1877.255126953125	1588.581298828125	239.9150695800785	1887.5361328125	1577.669799804688	102.0374908447269	1693.016479492188	1405.168823242188	171.0340270996097	1634.826171875	1235.575317382812	174.9036254882816	1628.900634765625	1194.642822265625	154.8096618652347	1620.709838867188	1188.328491210938	204.2083282470706	1632.579956054688	1131.04248046875	172.7930603027347	1659.22216796875	1063.925048828125	176.9744567871097	1628.54345703125	1027.531982421875	156.1225585937503	1624.434936523438	1026.548461914062	206.2869567871097	1623.650024414062	965.6683959960939	178.5579681396487	1643.150268554688	923.9700317382814	149.9563903808597	1635.464721679688	924.1714477539064	200.8286285400394	1623.372802734375	865.0523681640626	173.7538146972659	1843.213012695312	644.1292724609376	10.60068416595493	1818.644287109375	572.9890747070314	34.92052078247104	1865.4013671875	589.0569458007814	23.90185928344761	1957.39404296875	308.769989013672	21.11112022399938	1932.691040039062	234.5121612548829	34.38355255126989	1979.041870117188	250.9409637451173	28.97333335876501	1975.039794921875	53.65956497192395	117.061546325684	2191.564453125	80.68056488037122	115.0137176513676	2152.10888671875	44.91414642333998	22.14796447753946	1633.115356445312	689.6820678710939	369.3858947753909	1666.479858398438	621.0108642578126	390.7996215820315	1626.612670898438	628.8964843750001	362.0167236328128	1483.876953125	387.3204345703126	363.4846496582034	1472.530639648438	309.4979553222657	359.9707946777347	1441.277465820312	345.2714843750001	345.382263183594	1304.222290039062	191.3565826416016	236.7503204345705	1431.584350585938	41.86911773681649	233.9502716064456	1395.084594726562	49.56217956542977	341.5584411621097	1863.954833984375	1303.597778320313	178.7231903076175	1879.295776367188	1161.16455078125	189.7539825439457	1767.910278320312	1357.114501953125	-0.2749503552910418	1722.635864257812	1202.426147460938	-92.99514770507781	1693.66357421875	1144.030883789062	-105.2684326171872	1743.84716796875	1139.749267578125	-94.3497390747067	1672.743774414062	946.5618286132814	-133.5588836669919	1622.44189453125	891.0885620117189	-106.28742980957	1662.536499023438	885.7460937500001	-135.87629699707	1652.772705078125	782.5350341796876	-145.5071258544919	1712.3359375	766.2575683593751	-94.76345825195281	1772.362182617188	1370.25	342.5146484375003	1772.243896484375	1229.338989257812	449.4546203613285	1804.741088867188	1172.567016601562	459.0975952148441	1755.978515625	1171.413940429688	475.9889831542972	1863.592895507812	967.5104980468751	501.2807617187503	1941.693603515625	954.3831176757814	507.6365356445316	1906.547485351562	923.2369384765626	492.1338806152347	1984.088500976562	876.7756347656251	482.8022460937503	2010.200317382812	896.1232910156251	408.454986572266	
